<svg version="1.0" xmlns="http://www.w3.org/2000/svg" viewBox="0 0 512 512" preserveAspectRatio="xMidYMid meet" id="el_4XbkKIYdL"><style>#el_D_WCgmHl5P{-webkit-transform: translate(0px, 512px) scale(0.1, -0.1);transform: translate(0px, 512px) scale(0.1, -0.1);fill: #000000;stroke: none;}</style>
<metadata>
Created by potrace 1.15, written by Peter Selinger 2001-2017
</metadata>
<g id="el_D_WCgmHl5P">
<path d="M490 2501 l0 -41 110 0 c106 0 111 -1 140 -27 61 -55 47 -159 -25&#10;-189 -19 -8 -57 -14 -85 -14 l-50 0 0 49 0 49 -45 4 -45 3 0 -87 0 -88 103 0&#10;c157 1 205 18 255 90 17 25 22 47 22 94 0 83 -28 131 -95 165 -43 23 -65 26&#10;-167 30 l-118 3 0 -41z" id="el_A9oEM0bjAR"/>
<path d="M950 2505 l0 -35 151 0 150 0 -3 33 -3 32 -147 3 -148 3 0 -36z" id="el_ZB3Vb_xCzd"/>
<path d="M1280 2537 c0 -2 22 -55 49 -118 l50 -114 25 57 25 57 -23 58 -24 58&#10;-51 3 c-28 2 -51 1 -51 -1z" id="el_2aQzPhEQKU"/>
<path d="M1601 2518 c-5 -13 -39 -93 -76 -178 -37 -85 -69 -161 -72 -168 -4&#10;-10 6 -12 41 -10 l47 3 80 185 c43 101 79 186 79 187 0 2 -20 3 -45 3 -38 0&#10;-47 -4 -54 -22z" id="el_d1ve6rjODQ"/>
<path d="M1779 2517 c-44 -29 -63 -69 -55 -112 9 -45 41 -69 123 -89 76 -19&#10;93 -30 93 -57 0 -41 -74 -47 -176 -14 -16 5 -23 0 -32 -20 -7 -15 -10 -31 -7&#10;-36 3 -5 31 -16 62 -25 102 -30 208 -2 238 63 34 70 -12 130 -116 152 -70 15&#10;-89 27 -89 56 0 18 7 26 26 31 27 7 98 1 126 -11 12 -5 21 2 33 25 l16 31 -35&#10;14 c-20 8 -66 15 -104 15 -55 0 -76 -5 -103 -23z" id="el_YxEE4KBKbu"/>
<path d="M2352 2519 c-115 -57 -137 -227 -42 -313 70 -63 204 -70 275 -14 l26&#10;21 -26 27 -27 28 -32 -19 c-17 -10 -49 -19 -72 -19 -101 0 -147 118 -78 200&#10;35 41 82 48 136 21 42 -20 44 -21 67 -3 38 28 36 38 -12 66 -58 34 -151 36&#10;-215 5z" id="el_yQDyUPn1rY"/>
<path d="M2770 2525 c-76 -35 -112 -90 -112 -175 0 -66 17 -105 65 -147 98&#10;-86 267 -57 328 57 42 78 13 194 -63 246 -34 24 -53 29 -112 32 -48 1 -82 -3&#10;-106 -13z m168 -87 c33 -32 47 -87 32 -132 -16 -50 -53 -76 -107 -76 -38 0&#10;-50 5 -79 34 -28 28 -34 42 -34 75 0 84 51 136 125 126 22 -3 50 -16 63 -27z" id="el_n8TU2ANyaV"/>
<path d="M3150 2350 l0 -190 140 0 140 0 0 35 0 34 -92 3 -93 3 -3 153 -3 152&#10;-44 0 -45 0 0 -190z" id="el_1LZaYgadwl"/>
<path d="M3490 2350 l0 -190 140 0 140 0 0 35 0 35 -90 0 -90 0 0 155 0 155&#10;-50 0 -50 0 0 -190z" id="el_wCsDdCPYqr"/>
<path d="M3953 2523 c-4 -10 -41 -96 -84 -190 l-77 -173 48 0 47 0 46 113 c25&#10;61 51 124 56 140 6 15 14 27 19 27 4 0 33 -63 63 -140 l54 -140 49 0 c42 0 47&#10;2 42 18 -4 9 -41 95 -84 190 l-76 172 -49 0 c-36 0 -49 -4 -54 -17z" id="el_9l_TWLPikG"/>
<path d="M4280 2505 l0 -35 108 0 c111 0 132 -7 132 -41 0 -40 -26 -49 -136&#10;-49 l-104 0 0 -30 0 -30 113 0 c100 0 116 -2 131 -19 10 -11 16 -28 14 -38 -6&#10;-31 -48 -43 -155 -43 l-103 0 0 -30 0 -30 113 0 c61 0 129 3 149 6 89 15 120&#10;106 56 164 l-32 30 24 25 c49 52 17 123 -65 144 -24 6 -89 11 -144 11 l-101 0&#10;0 -35z" id="el_CnySvK1IsY"/>
<path d="M950 2353 l0 -33 150 0 150 0 0 29 0 30 -150 3 -150 3 0 -32z" id="el_RvMayIP2Se"/>
<path d="M950 2195 l0 -35 150 0 150 0 0 35 0 35 -150 0 -150 0 0 -35z" id="el_6rutSgO-D1"/>
</g>
</svg>